<?xml version="1.0" standalone="no"?>
<!DOCTYPE svg PUBLIC "-//W3C//DTD SVG 20010904//EN"
 "http://www.w3.org/TR/2001/REC-SVG-20010904/DTD/svg10.dtd">
<svg version="1.0" xmlns="http://www.w3.org/2000/svg"
 width="256.000000pt" height="256.000000pt" viewBox="0 0 256.000000 256.000000"
 preserveAspectRatio="xMidYMid meet">

<g transform="translate(0.000000,256.000000) scale(0.100000,-0.100000)"
fill="#000000" stroke="none">
<path d="M63 2540 c-60 -36 -63 -53 -63 -320 0 -261 3 -277 56 -319 24 -19 40
-21 157 -21 118 0 135 -2 181 -25 114 -56 278 -68 392 -29 l47 16 66 -66 65
-65 -22 -28 c-48 -62 -106 -168 -136 -251 -29 -82 -31 -96 -31 -232 0 -113 4
-158 18 -205 28 -90 79 -193 126 -255 l41 -55 -192 -2 c-207 -3 -229 -8 -248
-54 -19 -44 -9 -232 13 -256 14 -17 17 -40 17 -152 0 -141 11 -190 48 -210 15
-8 301 -11 941 -11 l920 0 28 24 28 24 3 153 c3 133 6 156 23 177 16 21 19 41
19 139 0 108 -1 115 -25 138 -24 25 -25 25 -225 25 l-201 0 45 64 c173 241
195 546 59 810 -78 151 -244 299 -396 354 -43 15 -70 42 -274 277 -269 308
-290 329 -360 355 -51 19 -77 20 -571 20 -495 0 -518 -1 -549 -20z m1102 -89
c43 -19 90 -69 324 -336 l130 -150 -117 -6 c-65 -3 -123 -8 -128 -12 -6 -3
-91 75 -190 174 -116 116 -186 179 -199 179 -25 0 -45 -18 -45 -40 0 -8 120
-134 266 -280 146 -146 279 -283 295 -304 56 -75 33 -172 -48 -208 -85 -37
-90 -34 -348 222 -126 125 -240 231 -252 234 -12 4 -52 -2 -94 -15 -58 -18
-87 -21 -161 -17 -141 9 -246 68 -304 173 -16 28 -60 32 -74 6 -10 -19 -3 -43
28 -103 6 -12 -117 -9 -139 2 -18 10 -19 24 -19 249 0 131 3 241 7 244 3 4
236 7 517 7 474 0 514 -2 551 -19z m539 -601 c193 -49 348 -175 436 -355 53
-108 70 -179 70 -300 0 -117 -16 -189 -65 -294 -36 -76 -123 -194 -151 -205
-9 -3 -40 -6 -70 -6 l-54 0 72 69 c114 108 168 213 189 369 21 149 -31 326
-130 445 -111 133 -248 203 -437 222 -53 6 -66 12 -95 41 l-33 34 95 0 c63 0
123 -7 173 -20z m-2 -174 c209 -74 341 -261 340 -481 -1 -291 -221 -510 -512
-508 -210 2 -388 124 -471 323 -20 48 -23 73 -24 185 0 126 1 132 32 198 18
38 42 82 54 98 l21 30 57 -54 c31 -30 71 -61 88 -70 25 -13 32 -24 37 -60 10
-69 55 -130 115 -158 l50 -24 1 -122 c0 -68 -4 -123 -8 -123 -20 0 -62 59 -71
99 -13 60 -43 78 -76 44 -13 -12 -15 -26 -11 -56 13 -82 61 -143 131 -168 18
-7 38 -23 44 -36 13 -29 54 -31 74 -3 8 11 34 30 58 43 157 83 156 311 -2 381
l-49 21 0 117 c0 64 4 119 9 122 16 10 71 -63 71 -93 0 -15 9 -36 20 -46 29
-26 70 -7 70 33 0 66 -47 150 -99 177 -24 12 -29 22 -34 62 -3 26 -9 58 -12
71 -10 29 10 29 97 -2z m-666 -155 c-68 -105 -88 -169 -94 -296 -8 -193 40
-317 175 -453 l82 -82 -59 0 -58 0 -55 61 c-208 229 -224 588 -39 842 l35 48
27 -26 28 -27 -42 -67z m454 -206 c0 -36 -4 -65 -8 -65 -11 0 -46 39 -61 67
-23 45 -16 53 57 62 8 1 12 -18 12 -64z m139 -210 c48 -55 40 -136 -19 -182
-8 -7 -18 -13 -22 -13 -5 0 -8 52 -8 115 0 63 4 115 9 115 5 0 23 -16 40 -35z
m761 -595 l0 -80 -895 0 -895 0 0 80 0 80 895 0 895 0 0 -80z"/>
</g>
</svg>
