<?xml version="1.0" standalone="no"?>
<!DOCTYPE svg PUBLIC "-//W3C//DTD SVG 20010904//EN"
 "http://www.w3.org/TR/2001/REC-SVG-20010904/DTD/svg10.dtd">
<svg version="1.0" xmlns="http://www.w3.org/2000/svg"
 width="256.000000pt" height="256.000000pt" viewBox="0 0 256.000000 256.000000"
 preserveAspectRatio="xMidYMid meet">

<g transform="translate(0.000000,256.000000) scale(0.100000,-0.100000)"
fill="#000000" stroke="none">
<path d="M0 1280 l0 -1280 1280 0 1280 0 0 1280 0 1280 -1280 0 -1280 0 0
-1280z m1734 803 c60 -120 74 -273 36 -397 -24 -76 -8 -63 -260 -209 -242
-140 -229 -135 -282 -105 -257 146 -387 224 -405 244 -77 85 -73 360 7 479
l20 30 0 -127 c0 -118 2 -129 23 -151 22 -24 353 -218 393 -231 15 -4 70 22
205 100 101 58 194 112 207 120 21 14 22 20 22 154 0 77 2 140 5 140 2 0 15
-21 29 -47z m-660 -792 c98 -55 190 -101 203 -101 14 0 107 46 206 103 100 56
184 103 188 105 5 2 4 -10 -1 -27 -29 -104 -137 -222 -237 -262 -47 -19 -77
-23 -158 -24 -88 0 -107 4 -158 27 -74 35 -170 126 -201 192 -29 61 -41 100
-30 93 5 -2 89 -50 188 -106z m-526 -127 c103 -59 124 -74 104 -74 -7 0 -21
-9 -32 -20 -19 -19 -20 -33 -20 -275 0 -140 -3 -255 -6 -255 -3 0 -39 30 -80
66 l-74 66 0 274 c0 151 2 274 6 274 3 0 49 -25 102 -56z m1572 -218 l0 -274
-77 -66 -78 -65 -5 255 -5 256 -29 24 c-15 14 -27 26 -25 28 13 11 205 116
211 116 4 0 8 -123 8 -274z m-1277 48 c18 -9 79 -44 135 -77 l104 -60 -31 -24
-31 -24 0 -271 c0 -239 -2 -274 -17 -290 -9 -10 -22 -18 -30 -18 -7 0 -54 34
-103 76 l-90 77 0 307 c0 169 3 310 7 313 10 10 21 9 56 -9z m921 10 c14 -5
16 -42 16 -309 l0 -304 -76 -68 c-98 -88 -119 -101 -142 -87 -15 10 -18 40
-22 295 -3 156 -7 285 -8 287 -1 1 -15 10 -32 20 l-29 18 132 77 c142 82 138
80 161 71z"/>
</g>
</svg>
